<svg xmlns="http://www.w3.org/2000/svg" viewBox="0 0 146.81 146.81"><defs><style>.cls-1{fill:#f7f7f7;}.cls-2,.cls-3{fill:#162731;}.cls-3{fill-rule:evenodd;}.cls-4{fill:#417fa0;}.cls-5,.cls-6{fill:none;stroke:#162731;stroke-linejoin:round;}.cls-5{stroke-linecap:round;stroke-width:2.27px;}.cls-6{stroke-width:1.89px;}</style></defs><g id="Layer_2" data-name="Layer 2"><g id="Layer_37" data-name="Layer 37"><rect class="cls-1" width="146.81" height="146.81" rx="12.77"/></g><g id="Layer_38" data-name="Layer 38"><path class="cls-2" d="M21.81,129.22a8.07,8.07,0,0,1-4-1,7,7,0,0,1-2.78-2.87,10.79,10.79,0,0,1,0-9.18,7,7,0,0,1,2.8-2.87,8.05,8.05,0,0,1,3.95-1,8.69,8.69,0,0,1,2.76.41A6.59,6.59,0,0,1,26.8,114a5.92,5.92,0,0,1,1.56,1.94,7.15,7.15,0,0,1,.75,2.62h-4a3.64,3.64,0,0,0-.32-1.12,2.66,2.66,0,0,0-.67-.85,2.84,2.84,0,0,0-1-.55,3.71,3.71,0,0,0-1.24-.19,3.58,3.58,0,0,0-2.05.59,3.75,3.75,0,0,0-1.32,1.7,6.92,6.92,0,0,0-.46,2.68,7.08,7.08,0,0,0,.46,2.73,3.4,3.4,0,0,0,3.36,2.22,3.72,3.72,0,0,0,1.19-.17,3.11,3.11,0,0,0,1-.49,2.78,2.78,0,0,0,.68-.8,3.25,3.25,0,0,0,.37-1.06h4a6.4,6.4,0,0,1-.62,2.16,6.67,6.67,0,0,1-1.44,1.93,7,7,0,0,1-2.24,1.39A8.2,8.2,0,0,1,21.81,129.22Z"/><path class="cls-2" d="M36.47,129.23a6.62,6.62,0,0,1-3.33-.8A5.33,5.33,0,0,1,31,126.2a7.77,7.77,0,0,1,0-6.66,5.38,5.38,0,0,1,2.13-2.23,7.35,7.35,0,0,1,6.67,0A5.47,5.47,0,0,1,42,119.54a7.86,7.86,0,0,1,0,6.66,5.41,5.41,0,0,1-2.14,2.23A6.66,6.66,0,0,1,36.47,129.23Zm0-3a1.76,1.76,0,0,0,1.2-.42,2.56,2.56,0,0,0,.75-1.18,5.72,5.72,0,0,0,.26-1.79,5.5,5.5,0,0,0-.26-1.77,2.49,2.49,0,0,0-.75-1.16,1.76,1.76,0,0,0-1.2-.42,1.86,1.86,0,0,0-1.22.42,2.43,2.43,0,0,0-.76,1.16,5.5,5.5,0,0,0-.26,1.77,5.72,5.72,0,0,0,.26,1.79,2.5,2.5,0,0,0,.76,1.18A1.86,1.86,0,0,0,36.49,126.24Z"/><path class="cls-2" d="M50.73,116.67v2.9H42.82v-2.9ZM44.48,129v-13a4.76,4.76,0,0,1,.53-2.38,3.36,3.36,0,0,1,1.48-1.41,5,5,0,0,1,2.21-.47,9.4,9.4,0,0,1,1.54.13,10.38,10.38,0,0,1,1.07.23L50.7,115a4.88,4.88,0,0,0-.53-.11,3,3,0,0,0-.59-.05,1.17,1.17,0,0,0-.94.31,1.26,1.26,0,0,0-.26.84v13Z"/><path class="cls-2" d="M59.41,116.67v2.9H51.5v-2.9ZM53.16,129v-13a4.76,4.76,0,0,1,.53-2.38,3.36,3.36,0,0,1,1.48-1.41,5,5,0,0,1,2.21-.47,9.4,9.4,0,0,1,1.54.13,10.38,10.38,0,0,1,1.07.23L59.38,115a4.88,4.88,0,0,0-.53-.11,3,3,0,0,0-.59-.05,1.17,1.17,0,0,0-.94.31,1.26,1.26,0,0,0-.26.84v13Z"/><path class="cls-2" d="M65.86,129.23a6.84,6.84,0,0,1-3.34-.77,5.16,5.16,0,0,1-2.15-2.19,7.19,7.19,0,0,1-.74-3.39,7.06,7.06,0,0,1,.75-3.34,5.53,5.53,0,0,1,2.11-2.23,6.3,6.3,0,0,1,3.22-.8,6.66,6.66,0,0,1,2.41.42,5.24,5.24,0,0,1,1.9,1.21,5.41,5.41,0,0,1,1.23,2,7.5,7.5,0,0,1,.44,2.7v1H61v-2.26h8.85l-1.83.53a3.69,3.69,0,0,0-.26-1.45,2,2,0,0,0-.75-.93,2.17,2.17,0,0,0-1.23-.33,2.24,2.24,0,0,0-1.25.33,2.06,2.06,0,0,0-.77.92,3.31,3.31,0,0,0-.27,1.39v1.62a3.41,3.41,0,0,0,.31,1.49,2.26,2.26,0,0,0,.86,1,2.46,2.46,0,0,0,1.28.33,2.75,2.75,0,0,0,.93-.14,1.82,1.82,0,0,0,1.17-1.1l3.59.1a4.33,4.33,0,0,1-1,2.1,4.89,4.89,0,0,1-2,1.39A7.64,7.64,0,0,1,65.86,129.23Z"/><path class="cls-2" d="M78.76,129.23a6.91,6.91,0,0,1-3.35-.77,5.2,5.2,0,0,1-2.14-2.19,7.19,7.19,0,0,1-.74-3.39,7.06,7.06,0,0,1,.74-3.34,5.55,5.55,0,0,1,2.12-2.23,6.3,6.3,0,0,1,3.22-.8,6.66,6.66,0,0,1,2.41.42,5.32,5.32,0,0,1,1.9,1.21,5.41,5.41,0,0,1,1.23,2,7.72,7.72,0,0,1,.44,2.7v1H73.88v-2.26h8.85l-1.84.53a3.69,3.69,0,0,0-.25-1.45,2,2,0,0,0-.75-.93,2.17,2.17,0,0,0-1.23-.33,2.24,2.24,0,0,0-1.25.33,2,2,0,0,0-.77.92,3.31,3.31,0,0,0-.27,1.39v1.62a3.28,3.28,0,0,0,.31,1.49,2.26,2.26,0,0,0,.86,1,2.46,2.46,0,0,0,1.28.33,2.75,2.75,0,0,0,.93-.14,1.86,1.86,0,0,0,.71-.42,2,2,0,0,0,.46-.68l3.59.1a4.43,4.43,0,0,1-1,2.1,4.89,4.89,0,0,1-2,1.39A7.64,7.64,0,0,1,78.76,129.23Z"/><path class="cls-2" d="M86,129V112.57h6.84a8,8,0,0,1,3.09.52,4.14,4.14,0,0,1,1.88,1.46,3.88,3.88,0,0,1,.62,2.17,3.49,3.49,0,0,1-.39,1.67A3.42,3.42,0,0,1,97,119.61a4,4,0,0,1-1.59.67v.18a3.88,3.88,0,0,1,1.83.52,3.72,3.72,0,0,1,1.36,1.37,4,4,0,0,1,.51,2.05,4.3,4.3,0,0,1-.66,2.36,4.5,4.5,0,0,1-1.94,1.64,7.23,7.23,0,0,1-3.1.6Zm4-9.67h2.21a2.78,2.78,0,0,0,1.15-.23,1.76,1.76,0,0,0,.79-.62,1.66,1.66,0,0,0,.29-1,1.59,1.59,0,0,0-.59-1.29,2.39,2.39,0,0,0-1.57-.48H90Zm0,6.47h2.47a3,3,0,0,0,1.9-.5,1.64,1.64,0,0,0,.62-1.35,2,2,0,0,0-.3-1.11,2,2,0,0,0-.84-.71,3.08,3.08,0,0,0-1.3-.26H90Z"/><path class="cls-2" d="M103.82,129.22a5.14,5.14,0,0,1-2.1-.41,3.1,3.1,0,0,1-1.44-1.2,3.67,3.67,0,0,1-.52-2,3.75,3.75,0,0,1,.36-1.73,3.07,3.07,0,0,1,1-1.15,5,5,0,0,1,1.46-.68,8.18,8.18,0,0,1,1.77-.3c.69-.07,1.26-.13,1.68-.2a2.22,2.22,0,0,0,.93-.31.67.67,0,0,0,.3-.58v-.06a1.17,1.17,0,0,0-.42-.95,1.81,1.81,0,0,0-1.15-.34,2.13,2.13,0,0,0-1.25.34,1.55,1.55,0,0,0-.6.93l-3.61-.12a4.26,4.26,0,0,1,.82-2,4.45,4.45,0,0,1,1.84-1.4,7.14,7.14,0,0,1,2.84-.51,8.31,8.31,0,0,1,2.17.28,5.51,5.51,0,0,1,1.73.8,3.88,3.88,0,0,1,1.14,1.29,3.55,3.55,0,0,1,.41,1.74V129h-3.69v-1.73h-.09a3.58,3.58,0,0,1-.85,1.06,3.5,3.5,0,0,1-1.18.66A4.93,4.93,0,0,1,103.82,129.22Zm1.2-2.58a2.52,2.52,0,0,0,1.14-.26,2.26,2.26,0,0,0,.82-.71,1.9,1.9,0,0,0,.3-1.06v-1.16a2.56,2.56,0,0,1-.4.16l-.53.14-.58.11-.55.09a3,3,0,0,0-1,.27,1.5,1.5,0,0,0-.59.48,1.19,1.19,0,0,0-.19.69,1.1,1.1,0,0,0,.42.93A1.86,1.86,0,0,0,105,126.64Z"/><path class="cls-2" d="M112.94,129V116.67h3.81v2.26h.13a3.3,3.3,0,0,1,1.1-1.83,2.84,2.84,0,0,1,1.77-.59,3.82,3.82,0,0,1,.57,0,2.76,2.76,0,0,1,.53.11v3.39a4.54,4.54,0,0,0-.74-.15c-.3,0-.57-.05-.8-.05a2.64,2.64,0,0,0-1.26.31,2.32,2.32,0,0,0-.87.86,2.55,2.55,0,0,0-.31,1.28V129Z"/><path class="cls-2" d="M125.25,129.22a5.14,5.14,0,0,1-2.1-.41,3.1,3.1,0,0,1-1.44-1.2,3.67,3.67,0,0,1-.52-2,3.75,3.75,0,0,1,.36-1.73,3.07,3.07,0,0,1,1-1.15A5,5,0,0,1,124,122a8.18,8.18,0,0,1,1.77-.3c.69-.07,1.26-.13,1.68-.2a2.33,2.33,0,0,0,.94-.31.68.68,0,0,0,.29-.58v-.06a1.17,1.17,0,0,0-.42-.95,1.81,1.81,0,0,0-1.15-.34,2.13,2.13,0,0,0-1.25.34,1.55,1.55,0,0,0-.6.93l-3.61-.12a4.27,4.27,0,0,1,.83-2,4.33,4.33,0,0,1,1.84-1.4,7.1,7.1,0,0,1,2.84-.51,8.18,8.18,0,0,1,2.16.28,5.4,5.4,0,0,1,1.73.8,4,4,0,0,1,1.15,1.29,3.66,3.66,0,0,1,.4,1.74V129h-3.69v-1.73h-.09a3.58,3.58,0,0,1-.85,1.06,3.5,3.5,0,0,1-1.18.66A4.93,4.93,0,0,1,125.25,129.22Zm1.2-2.58a2.52,2.52,0,0,0,1.14-.26,2.18,2.18,0,0,0,.82-.71,1.9,1.9,0,0,0,.3-1.06v-1.16a2.21,2.21,0,0,1-.4.16l-.53.14-.57.11-.56.09a3.11,3.11,0,0,0-1,.27,1.4,1.4,0,0,0-.58.48,1.13,1.13,0,0,0-.2.69,1.08,1.08,0,0,0,.43.93A1.81,1.81,0,0,0,126.45,126.64Z"/><path class="cls-3" d="M82,98.52l-1.5-4.77s1.63-9.9,4.85-10.2l-4.53-2.3-7.74,1,2.31,5.89c-.21,2,2.31,12.45,2.31,12.45h8Z"/><path class="cls-3" d="M50.7,78.42a121.6,121.6,0,0,1-12.28,7.12c-2.74,1.27-8,1.34-10.25,2.83-3.05,2-4.82,12.12-8.47,10.54-1.76-.77.56-5.61.56-5.61l4.08-10.15c.43-.82,7.2-3.45,8-3.87l6.14-7.43Z"/><ellipse class="cls-2" cx="70.56" cy="100.86" rx="46.6" ry="0.41"/><ellipse class="cls-2" cx="70.56" cy="103.06" rx="30.29" ry="0.41"/><ellipse class="cls-2" cx="70.56" cy="105.38" rx="21.77" ry="0.41"/><path class="cls-4" d="M116.81,31.55c-1.65-1.78-3.29-1.83-5.7-1.79-4,.06-10,0-14,.39-.78.07-1.12-.7-1.67-1.61-.21-4.24-3.71-5.07-3.86.53,0,.43-.46.58-1,.26-1.72-.92-5.18-2.27-6.32-.95s.67,4.55,1.75,6.19c.25.38,1.32-.15,1.45.35a35.23,35.23,0,0,1,.21,4.86c.11,8.68-7.12,15.51-14.56,11.19-12.33-7.18-26.61-4.46-30.24,1.49C37.78,60.82,38.47,71,44.09,75c2.63,2.71,3.32,9.41,3.32,9.41.59,2.07-2.51,5.25-1.2,7.14C52,100,55.15,101,59.72,101c4.16,0-7.09-4.57-6.51-8.22C53.56,92.32,58.42,82,58.42,82A63.86,63.86,0,0,0,69.75,83.2a109.5,109.5,0,0,0,13.76-1l3.56,2.92s11.21,1.49,14.28,2.43c2.52.76,4,4.37,6.56,5.07,4.81,1.31,6.08-1.86,6.21-2.33-.06-3.15-19.8-8.93-21.93-11.45-.22-2.24,7.7-5,9.76-8.64,2.75-4.86.18-7.43,1.15-16.72,0-1.67.42-2.15,2.06-2.59.8-.22,9.19-2.55,10.94-4.22a11,11,0,0,0,2.76-6C119.36,38.05,118.67,33.54,116.81,31.55Z"/><path class="cls-5" d="M110.87,29.51c-4.31-1.2-6.37-.84-13.67.33-1.55.25-1.84-4.87-3.89-4.87-2.94,0-1.74,2.32-1.68,4.1,0,.43-1.61,1-2.2.65-1.72-.92-4.53-4.4-5.84-1.88s1.34,5.09,2.42,6.73c.25.38-.31,3.63-.65,4.87-2.73,10-7.94,7.32-15.09,3.58-10.41-5.46-26.41-1.54-32.21,9.2S39,73.91,45.53,76.71c.38,1,1.68,6.6,1.68,6.6.41,1.43-1.9,7-1,8.27,2.58,3.76,7.84,11.14,13.51,9.44,4.64-1.39-7.09-5.24-6.51-8.89.35-.48,5.09-8.75,5.32-10.55a35.85,35.85,0,0,0,22.32-.33c5.34,2.68,7.92,4.25,10.51,4.45a47.57,47.57,0,0,1,10.49,1.91c2.5.82,3.89,4.39,6.45,5.21a5.74,5.74,0,0,0,6-1.68c.28-.4.12,0,.26-.53,0-3.14-23.37-12.18-23.08-12.33C101.87,73,106.56,65.85,102,51.92c8.76-1,11.7-5.13,14.11-5.3,3-.21,3.29-3.39,3-8.33S117.72,31.41,110.87,29.51Z"/><path class="cls-1" d="M31.62,58.57a20.54,20.54,0,0,1,8.74-5.7A30.3,30.3,0,0,1,51,51.19a42.19,42.19,0,0,1,20.36,6.35,58.47,58.47,0,0,0,16.51,7,40.59,40.59,0,0,0,9,1,33.72,33.72,0,0,0,9.57-1.36,20.47,20.47,0,0,1-8.74,5.71A30.59,30.59,0,0,1,87.06,71.6,42.24,42.24,0,0,1,66.7,65.24a57.91,57.91,0,0,0-16.5-7,40,40,0,0,0-9-1A33.74,33.74,0,0,0,31.62,58.57Z"/><path class="cls-2" d="M95.2,33.77c1.32-.82,3.49-1.08,4.47.61.57,1-1.15,0-3.44,1.08s-2.75,3.83-3,2.28A3.67,3.67,0,0,1,95.2,33.77Z"/><path class="cls-2" d="M113.44,35.22c-.61-.4-1.28.08-2,0a.8.8,0,0,1-.74-.84,1,1,0,0,1,.69-1c.7-.2,1.48-.22,1.66.23S113.77,35.12,113.44,35.22Z"/><path class="cls-2" d="M114,47.13c-1.3-.14-2.85-1.1-2.62-2.72.13-.93.73.63,2.82,1.08s3.78-1.09,3.12,0A3,3,0,0,1,114,47.13Z"/><path class="cls-2" d="M116.06,34.24c.44-.58,1.23-.37,1.83-.66a.8.8,0,0,0,.4-1,1,1,0,0,0-1-.72c-.72.05-1.39.39-1.47.8S115.71,34.27,116.06,34.24Z"/><path class="cls-2" d="M91,79.28a2.59,2.59,0,0,1-1.18-3.53s.79-1,1.34-.42.27.64.4.87a5.65,5.65,0,0,0,1.8,2Z"/><path class="cls-2" d="M83.56,82.61A11.6,11.6,0,0,1,77,78.68s-.7-.88-.31-1.46c0,0,.66-1.6,1.75.23s4.14,3.44,5.7,4.2Z"/><path class="cls-6" d="M58.82,81.14l4.06-3.4Z"/></g></g></svg>