<svg xmlns="http://www.w3.org/2000/svg" xmlns:xlink="http://www.w3.org/1999/xlink" viewBox="0 0 91.91 90.91"><defs><style>.cls-1{isolation:isolate;}.cls-2{fill:url(#linear-gradient);}.cls-3{fill:#e68805;mix-blend-mode:multiply;}.cls-4{fill:url(#linear-gradient-2);}.cls-10,.cls-11,.cls-12,.cls-5,.cls-6{mix-blend-mode:overlay;}.cls-5,.cls-6{opacity:0.7;}.cls-5{fill:url(#linear-gradient-3);}.cls-6{fill:url(#linear-gradient-4);}.cls-7{fill:url(#linear-gradient-5);}.cls-8{fill:#cf4505;}.cls-9{fill:url(#linear-gradient-6);}.cls-10,.cls-11{opacity:0.4;}.cls-10{fill:url(#linear-gradient-7);}.cls-11{fill:url(#linear-gradient-8);}.cls-12{opacity:0.5;fill:url(#radial-gradient);}</style><linearGradient id="linear-gradient" x1="6.21" y1="97.6" x2="102.58" y2="21.09" gradientUnits="userSpaceOnUse"><stop offset="0" stop-color="#d13f05"/><stop offset="0.29" stop-color="#f67205"/><stop offset="0.37" stop-color="#f67705"/><stop offset="0.45" stop-color="#f68505"/><stop offset="0.54" stop-color="#f69c05"/><stop offset="0.56" stop-color="#f6a205"/><stop offset="0.6" stop-color="#f69005"/><stop offset="0.64" stop-color="#f67f05"/><stop offset="0.69" stop-color="#f67505"/><stop offset="0.76" stop-color="#f67205"/><stop offset="1" stop-color="#d13f05"/></linearGradient><linearGradient id="linear-gradient-2" x1="68.37" y1="53.98" x2="-10.25" y2="14.68" gradientUnits="userSpaceOnUse"><stop offset="0" stop-color="#ffaf02"/><stop offset="1" stop-color="#f56d05"/></linearGradient><linearGradient id="linear-gradient-3" x1="24.27" y1="82.4" x2="87.14" y2="18.16" gradientUnits="userSpaceOnUse"><stop offset="0" stop-color="#fff" stop-opacity="0"/><stop offset="0.48" stop-color="#fff"/><stop offset="1" stop-color="#fff" stop-opacity="0"/></linearGradient><linearGradient id="linear-gradient-4" x1="26.21" y1="71.95" x2="54.81" y2="10.1" xlink:href="#linear-gradient-3"/><linearGradient id="linear-gradient-5" x1="77.31" y1="29.7" x2="13.77" y2="48.86" gradientUnits="userSpaceOnUse"><stop offset="0" stop-color="#cf4505"/><stop offset="1" stop-color="#e45905"/></linearGradient><linearGradient id="linear-gradient-6" x1="70.98" y1="57.65" x2="1.8" y2="23.01" xlink:href="#linear-gradient-2"/><linearGradient id="linear-gradient-7" x1="30.95" y1="28.22" x2="57.79" y2="59.71" gradientUnits="userSpaceOnUse"><stop offset="0" stop-color="#fff"/><stop offset="1" stop-color="#fff" stop-opacity="0"/></linearGradient><linearGradient id="linear-gradient-8" x1="17.86" y1="13.55" x2="32.55" y2="28.45" xlink:href="#linear-gradient-7"/><radialGradient id="radial-gradient" cx="-4163.48" cy="1072.81" r="27.09" gradientTransform="matrix(0.07, 0.07, -0.37, 0.37, 768.28, -17.25)" gradientUnits="userSpaceOnUse"><stop offset="0" stop-color="#fff"/><stop offset="0.09" stop-color="#fff" stop-opacity="0.96"/><stop offset="0.24" stop-color="#fff" stop-opacity="0.85"/><stop offset="0.43" stop-color="#fff" stop-opacity="0.66"/><stop offset="0.66" stop-color="#fff" stop-opacity="0.41"/><stop offset="0.93" stop-color="#fff" stop-opacity="0.09"/><stop offset="1" stop-color="#fff" stop-opacity="0"/></radialGradient></defs><g class="cls-1"><g id="Layer_2" data-name="Layer 2"><g id="OBJECTS"><path class="cls-2" d="M75.22,9.55l9,9.87C91.48,27.3,94,39.29,90,52.43,83.17,74.78,59.93,92,38.1,90.86c-9-.47-16.35-4-21.41-9.5l-9-9.88c5.06,5.53,12.42,9,21.41,9.5C50.89,82.1,74.12,64.9,81,42.55,85,29.41,82.43,17.43,75.22,9.55Z"/><path class="cls-3" d="M84.26,19.42l-9-9.87c.3.32.57.67.86,1l7.41,8.09c7.21,7.88,9.76,19.87,5.74,33C82.39,74,59.16,91.21,37.33,90.08c-8.28-.42-15.16-3.43-20.15-8.21,5,5.23,12.2,8.54,20.92,9C59.93,92,83.17,74.78,90,52.43,94,39.29,91.48,27.3,84.26,19.42Z"/><path class="cls-4" d="M53.81.05C75.64,1.18,87.79,20.2,81,42.55S50.89,82.1,29.05,81s-34-20.15-27.15-42.5S32-1.07,53.81.05Z"/><path class="cls-5" d="M81.43,43.08c4.07-13.3,1.41-25.42-6-33.3,7,7.88,9.52,19.76,5.54,32.77C74.12,64.9,50.89,82.1,29.05,81c-8.85-.46-16.11-3.87-21.16-9.24.1.12.2.24.31.35l.21.23c5,5.34,12.29,8.73,21.12,9.19C51.36,82.63,74.6,65.43,81.43,43.08Z"/><path class="cls-6" d="M49.64,11.44c15.68.81,24.41,14.48,19.5,30.54S47.53,70.39,31.85,69.59,7.43,55.11,12.34,39.05,34,10.64,49.64,11.44Z"/><path class="cls-7" d="M50.32,11.44C66,12.25,74.74,25.92,69.83,42S48.22,70.39,32.54,69.59,8.12,55.11,13,39.05,34.63,10.64,50.32,11.44Z"/><path class="cls-8" d="M16.41,40.7C21.33,24.65,38,12.29,53.7,13.1a24.68,24.68,0,0,1,7.6,1.57,23.43,23.43,0,0,0-11-3.23C34.63,10.64,17.94,23,13,39.05,9,52.28,14.2,63.88,24.94,68,16.54,62.93,12.82,52.46,16.41,40.7Z"/><path class="cls-9" d="M58.48,35.25l-7.42-3L48,24.86a2,2,0,0,0-1.8-1.33,3.53,3.53,0,0,0-2.52,1.18l-7.1,7-9,2.47c-2.09.59-3.23,2.46-2.52,4.18l3,7.37L25.64,54.6c-.47,1.68.27,2.82,1.69,2.87a3.73,3.73,0,0,0,1.06-.14l9-2.43,7.44,3a2.77,2.77,0,0,0,1,.21A3.43,3.43,0,0,0,49,55.41l2.52-8.87,7.07-7C60.28,37.89,60.21,36,58.48,35.25Z"/><path class="cls-10" d="M82.77,32.79,25.07,80.56c-9-1.44-16-6.13-20.32-12.85L75.12,9.45C80.56,15.33,83.37,23.53,82.77,32.79Z"/><path class="cls-11" d="M53.81.05A42.3,42.3,0,0,0,42.91,1L3.82,33.32A49.09,49.09,0,0,0,1.9,38.48,41.29,41.29,0,0,0,0,51.57L60.94,1.14A35.79,35.79,0,0,0,53.81.05Z"/><path class="cls-12" d="M68.3,68.47c-5.56,5.47-10.94,9-12,7.89s2.53-6.44,8.09-11.91,10.94-9,12-7.89S73.85,63,68.3,68.47Z"/></g></g></g></svg>